<?xml version="1.0" encoding="UTF-8" standalone="no"?>
<!-- Created with Inkscape (http://www.inkscape.org/) -->

<svg
   xmlns:dc="http://purl.org/dc/elements/1.1/"
   xmlns:cc="http://creativecommons.org/ns#"
   xmlns:rdf="http://www.w3.org/1999/02/22-rdf-syntax-ns#"
   xmlns:svg="http://www.w3.org/2000/svg"
   xmlns="http://www.w3.org/2000/svg"
   xmlns:sodipodi="http://sodipodi.sourceforge.net/DTD/sodipodi-0.dtd"
   xmlns:inkscape="http://www.inkscape.org/namespaces/inkscape"
   width="210mm"
   height="297mm"
   viewBox="0 0 744.09448819 1052.3622047"
   id="svg2"
   version="1.1"
   inkscape:version="0.91 r13725"
   sodipodi:docname="logo.svg">
  <defs
     id="defs4" />
  <sodipodi:namedview
     id="base"
     pagecolor="#ffffff"
     bordercolor="#666666"
     borderopacity="1.0"
     inkscape:pageopacity="0.0"
     inkscape:pageshadow="2"
     inkscape:zoom="1.4"
     inkscape:cx="195.44552"
     inkscape:cy="822.23266"
     inkscape:document-units="px"
     inkscape:current-layer="layer1"
     showgrid="false"
     inkscape:window-width="1280"
     inkscape:window-height="962"
     inkscape:window-x="-8"
     inkscape:window-y="-8"
     inkscape:window-maximized="1" />
  <metadata
     id="metadata7">
    <rdf:RDF>
      <cc:Work
         rdf:about="">
        <dc:format>image/svg+xml</dc:format>
        <dc:type
           rdf:resource="http://purl.org/dc/dcmitype/StillImage" />
        <dc:title></dc:title>
      </cc:Work>
    </rdf:RDF>
  </metadata>
  <g
     inkscape:label="Camada 1"
     inkscape:groupmode="layer"
     id="layer1">
    <g
       id="g4253"
       transform="translate(-57.142857,-260)"
       inkscape:export-xdpi="179.92"
       inkscape:export-ydpi="179.92">
      <path
         id="rect3340-6"
         d="m 239.13477,304.81055 -24.79102,53.58593 129.19336,0 0,-53.58593 -104.40234,0 z m 0.49414,14.43945 6.83593,0 5.41016,14.21875 5.72266,-14.21875 6.89453,0 4.02343,26.66016 -6.93359,0 -1.97265,-15.35157 -6.44532,15.35157 -2.7539,0 -6.15235,-15.35157 -2.26562,15.35157 -6.89453,0 4.53125,-26.66016 z m 58.28125,3.08594 6.40625,0 0,5.44922 3.65234,0 0,5.27343 -3.65234,0 0,12.85157 -6.40625,0 0,-12.85157 -2.10938,0 0,-5.27343 2.10938,0 0,-5.44922 z m -17.20704,4.86328 c 1.28907,0 2.5,0.27344 3.63282,0.82031 0.65104,0.3125 1.32161,0.82682 2.01172,1.54297 l 0,-1.77734 6.40625,0 0,18.125 -6.40625,0 0,-2.01172 c -0.61198,0.76823 -1.23047,1.32812 -1.85547,1.67968 -1.09375,0.61198 -2.33724,0.91797 -3.73047,0.91797 -2.25261,0 -4.25781,-0.77474 -6.01563,-2.32421 -2.09635,-1.84896 -3.14453,-4.29688 -3.14453,-7.34376 0,-3.09895 1.07422,-5.57291 3.22266,-7.42187 1.70573,-1.47135 3.66536,-2.20703 5.8789,-2.20703 z m 39.02344,0.0781 c 3.94532,0 6.76433,1.4323 8.45703,4.29688 0.95052,1.61458 1.42579,3.48958 1.42579,5.625 l 0,0.82031 -13.47657,0 c 0,2.72136 1.31511,4.08203 3.94531,4.08203 1.34115,0 2.3698,-0.57291 3.08594,-1.71875 l 6.19141,0 c -0.49479,1.64063 -1.22396,2.91016 -2.1875,3.8086 -1.74479,1.6276 -4.08203,2.4414 -7.01172,2.4414 -3.72396,0 -6.52344,-1.13281 -8.39844,-3.39843 -1.40625,-1.69271 -2.10937,-3.75652 -2.10937,-6.19141 0,-2.89063 0.8789,-5.24089 2.63672,-7.05078 1.75781,-1.8099 4.23828,-2.71485 7.4414,-2.71485 z m 0.25391,4.0625 c -1.09375,0 -1.97917,0.31901 -2.65625,0.95704 -0.53386,0.50781 -0.8724,1.1914 -1.01563,2.05078 l 7.32422,0 c -0.45573,-2.00521 -1.67317,-3.00782 -3.65234,-3.00782 z m -37.57813,1.38672 c -1.27604,0 -2.32422,0.48177 -3.14453,1.44532 -0.66406,0.78124 -0.99609,1.67317 -0.99609,2.67578 0,1.0026 0.33203,1.89453 0.99609,2.67578 0.80729,0.96354 1.85547,1.44531 3.14453,1.44531 1.15886,0 2.13542,-0.39714 2.92969,-1.19141 0.80729,-0.79427 1.21094,-1.77083 1.21094,-2.92968 0,-1.14584 -0.40365,-2.11589 -1.21094,-2.91016 -0.80729,-0.80729 -1.78385,-1.21094 -2.92969,-1.21094 z"
         style="opacity:1;fill:#000000;stroke:#000000;stroke-width:0;stroke-miterlimit:4;stroke-dasharray:none"
         inkscape:connector-curvature="0" />
      <path
         inkscape:connector-curvature="0"
         id="rect3340-5"
         d="m 213.88983,358.39733 24.79101,-53.58594 -129.19336,0 0,53.58594 104.40235,0 z"
         style="opacity:1;fill:#ffffff;stroke:#000000;stroke-width:3.01125002;stroke-miterlimit:4;stroke-dasharray:none" />
      <text
         sodipodi:linespacing="125%"
         id="text3336-2"
         y="345.91101"
         x="113.06153"
         style="font-style:normal;font-weight:normal;font-size:40px;line-height:125%;font-family:sans-serif;letter-spacing:0px;word-spacing:0px;fill:#000000;fill-opacity:1;stroke:none;stroke-width:1px;stroke-linecap:butt;stroke-linejoin:miter;stroke-opacity:1"
         xml:space="preserve"><tspan
           style="font-style:normal;font-variant:normal;font-weight:bold;font-stretch:normal;font-family:Aharoni;-inkscape-font-specification:'Aharoni Bold';fill:#000000"
           y="345.91101"
           x="113.06153"
           id="tspan3338-3"
           sodipodi:role="line">Chess</tspan></text>
      <path
         inkscape:connector-curvature="0"
         id="rect3340-5-6"
         d="m 238.67909,304.80508 -24.79101,53.58594 129.19337,0 0,-53.58594 -104.40236,0 z"
         style="opacity:1;fill:none;stroke:#000000;stroke-width:3.01125002;stroke-miterlimit:4;stroke-dasharray:none" />
    </g>
  </g>
</svg>
